<?xml version="1.0" encoding="utf-8"?>
<!-- Generator: Adobe Illustrator 24.0.2, SVG Export Plug-In . SVG Version: 6.00 Build 0)  -->
<svg version="1.1" id="Layer_1" focusable="false" xmlns="http://www.w3.org/2000/svg" xmlns:xlink="http://www.w3.org/1999/xlink"
	 x="0px" y="0px" viewBox="0 0 448 512" style="enable-background:new 0 0 448 512;" xml:space="preserve">
<style type="text/css">
	.st0{fill:#FFFFFF;}
</style>
<path class="st0" d="M224.1,160.4c-52.9,0-95.5,42.7-95.5,95.5s42.7,95.5,95.5,95.5s95.5-42.7,95.5-95.5S277,160.4,224.1,160.4z
	 M224.1,318c-34.2,0-62.1-27.9-62.1-62.1s27.9-62.1,62.1-62.1s62.1,27.9,62.1,62.1S258.3,318,224.1,318L224.1,318z M345.8,156.5
	c0,12.4-10,22.3-22.3,22.3c-12.4,0-22.3-10-22.3-22.3s10-22.3,22.3-22.3C335.8,134.2,345.8,144.2,345.8,156.5z M409.1,179.1
	c-1.4-29.8-8.2-56.3-30.1-78.1c-21.8-21.8-48.2-28.6-78.1-30.1c-30.8-1.7-123-1.7-153.7,0c-29.8,1.4-56.2,8.2-78.1,30
	S40.5,149.1,39,179c-1.7,30.8-1.7,123,0,153.7c1.4,29.8,8.2,56.3,30.1,78.1c21.9,21.8,48.2,28.6,78.1,30.1c30.8,1.7,123,1.7,153.7,0
	c29.8-1.4,56.3-8.2,78.1-30.1c21.8-21.8,28.6-48.2,30.1-78.1C410.8,302,410.8,209.8,409.1,179.1L409.1,179.1z M369.3,365.7
	c-6.5,16.3-19,28.9-35.4,35.4c-24.5,9.7-82.7,7.5-109.8,7.5s-85.4,2.2-109.8-7.5c-16.3-6.5-28.9-19-35.4-35.4
	c-9.7-24.5-7.5-82.7-7.5-109.8s-2.2-85.4,7.5-109.8c6.5-16.3,19-28.9,35.4-35.4c24.5-9.7,82.7-7.5,109.8-7.5s85.4-2.2,109.8,7.5
	c16.3,6.5,28.9,19,35.4,35.4c9.7,24.5,7.5,82.7,7.5,109.8S379.1,341.3,369.3,365.7z"/>
</svg>
