<?xml version="1.0" encoding="utf-8"?>
<!-- Generator: Adobe Illustrator 24.0.2, SVG Export Plug-In . SVG Version: 6.00 Build 0)  -->
<svg version="1.1" id="Layer_1" focusable="false" xmlns="http://www.w3.org/2000/svg" xmlns:xlink="http://www.w3.org/1999/xlink"
	 x="0px" y="0px" viewBox="0 0 512 512" style="enable-background:new 0 0 512 512;" xml:space="preserve">
<style type="text/css">
	.st0{fill:#FFFFFF;}
</style>
<path class="st0" d="M438,162.7c0.3,4.1,0.3,8.1,0.3,12.2C438.3,299,343.8,442,171.1,442c-53.2,0-102.6-15.4-144.2-42.1
	c7.6,0.9,14.8,1.2,22.7,1.2c43.9,0,84.3-14.8,116.6-40.1c-41.3-0.9-75.9-27.9-87.8-65.1c5.8,0.9,11.6,1.5,17.7,1.5
	c8.4,0,16.9-1.2,24.7-3.2c-43-8.7-75.3-46.5-75.3-92.1v-1.2c12.5,7,27,11.3,42.4,11.9c-25.3-16.9-41.9-45.6-41.9-78.2
	c0-17.4,4.7-33.4,12.8-47.4c46.2,57,115.7,94.2,193.6,98.3c-1.5-7-2.3-14.2-2.3-21.5c0-51.7,41.9-93.9,93.9-93.9
	c27,0,51.5,11.3,68.6,29.7c21.2-4.1,41.6-11.9,59.6-22.7c-7,21.8-21.8,40.1-41.3,51.7c18.9-2,37.2-7.3,54.1-14.5
	C472.3,132.7,456.3,149.3,438,162.7L438,162.7z"/>
</svg>
